<?xml version="1.0" encoding="UTF-8"?>
<!DOCTYPE svg PUBLIC "-//W3C//DTD SVG 1.1//EN" "http://www.w3.org/Graphics/SVG/1.1/DTD/svg11.dtd">
<!-- Creator: CorelDRAW 2020 (64-Bit) -->
<svg xmlns="http://www.w3.org/2000/svg" xml:space="preserve" width="325.261mm" height="312.561mm" version="1.1" style="shape-rendering:geometricPrecision; text-rendering:geometricPrecision; image-rendering:optimizeQuality; fill-rule:evenodd; clip-rule:evenodd"
viewBox="0 0 32526.12 31256.12"
 xmlns:xlink="http://www.w3.org/1999/xlink"
 xmlns:xodm="http://www.corel.com/coreldraw/odm/2003">
 <defs>
  <style type="text/css">
   <![CDATA[
    .fil3 {fill:#014AA7}
    .fil1 {fill:#0347B0}
    .fil0 {fill:#0946A3}
    .fil4 {fill:#38B9FD}
    .fil2 {fill:#3BB4FA}
    .fil7 {fill:#4FC0FA}
    .fil5 {fill:#4FC0FA}
    .fil6 {fill:white}
   ]]>
  </style>
 </defs>
 <g id="Capa_x0020_1">
  <metadata id="CorelCorpID_0Corel-Layer"/>
  <g id="_2807588277328">
   <path class="fil0" d="M21378.34 1869.73l10.52 10.51c-0.69,-0.68 -14.03,-7.01 -10.52,-10.51zm6491.11 5679.72c10.57,126.98 51.67,153.98 115.74,237.03 74.34,96.37 77.77,120.6 131.2,221.58l896.51 -620.44c55.33,-36.86 33.04,-19.77 83.67,-57.44 613.03,-456.07 572.56,-240.92 219.27,-768.51 -99.74,66.79 -1340.57,959.52 -1446.39,987.78zm-1622.78 19226.39c40.12,150.24 172.18,218.74 271.38,328.34 22.73,25.12 46.27,53.23 67.14,73.97l161.6 155.9c4.83,5.47 11.24,13.74 16.03,19.25 0.31,0.35 617.86,614.88 648.02,727.82 153.77,-35.83 349.06,-206.76 388.05,-352.78 -89.49,-133.64 -293.89,-296.49 -442.7,-474.52 -4.69,-5.61 -11.22,-13.75 -15.91,-19.37l-114.59 -132.35c-103.65,-109.62 -192.57,-192.72 -299.93,-299.79 -60.65,-60.49 -100.49,-96.66 -158.72,-158.79l-238.15 -185.18c-43.93,121.37 -185.2,172.61 -282.22,317.5zm-21448.89 -1023.06c43.4,162.56 231.13,294.36 317.5,423.34 -109.35,163.3 -870.87,707.36 -987.78,881.94 48.91,209.93 175.42,228.56 282.22,388.06 54.23,-36.32 112.05,-69.55 166.36,-115.87l1174.2 -1048.3c-31.71,-118.75 -45.84,-92.48 -125.24,-192.26l-391.23 -455.44c-83.59,-94.34 -56.21,-27.12 -83.25,-128.41 -186.19,15.49 -272.82,127.53 -352.78,246.94zm11535.83 -25470.55c0,160.87 -43.07,-26.99 0,176.39 141.74,-33.02 209.48,0 423.34,0 -37.46,450.08 -70.56,873.06 -70.56,1375.83 494.23,0 474.35,197.8 495.03,-528.03 8.86,-311.05 34.14,-519.87 34.14,-812.53l423.33 0c53.08,-227.82 35.28,-150.23 35.28,-423.33l-670.43 -35.12c-215.07,-11.32 -400.66,-35.44 -670.13,-35.44l0 282.23zm15134.17 11465.27c23.21,48.37 89.88,319.57 105.84,388.06l-903.21 225.68c-672.79,151.83 -343.61,42.62 -331.52,585.71l1340.56 -317.5c24.7,51.48 99.43,381.69 105.83,458.61 102.48,-68.62 47.31,-46.93 196.02,-86.21 86.92,-22.96 152.91,-37.57 227.32,-54.9 -76.39,-159.2 -107.59,-441.31 -156.51,-654.88 -50.47,-220.3 -141.45,-415.57 -160.99,-650.4 -168.17,0 -310.02,51.46 -423.34,105.83zm-23741.94 -9348.61c11.93,143.43 117.62,312.27 176.38,423.34 136.72,-72.35 251.34,-139.33 388.06,-211.67l232.43 432.34c11.57,25.04 -0.68,6.5 27.28,52.49 112.04,184.26 325.45,500.67 375.29,714.61l423.33 -211.66c-9.98,-119.96 -28.89,-216.19 -79.67,-270.37l-555.33 -964.35c143.37,-33.4 246.72,-105.37 352.78,-176.39 -15.23,-182.99 -101.15,-216.53 -141.11,-388.06 -187.54,4.18 -687.85,344.63 -893.28,447.28 -114.13,57.02 -203.68,98.22 -306.16,152.44zm-4480.28 22895.28c-60.15,-89.83 -165.99,-258.18 -246.95,-317.5 -105.87,28.27 -260.82,134.31 -317.5,211.67 36.34,155.95 259.84,432.09 353.03,564.19l387.81 529.42c117.69,-27.42 258.49,-131.14 317.5,-211.67 -42.67,-183.13 -133.24,-191.17 -176.39,-352.78l1058.33 -740.83c-4.24,-190.43 -106.12,-248.31 -246.94,-458.61l-1128.89 776.11zm9983.61 -24482.78c-174.05,-46.47 -250.31,-213.39 -371.69,-334.8 -171.63,-171.66 -304.12,-17.97 -580.81,-17.97 16.76,201.42 309.61,347.63 529.17,634.99 260.5,340.97 215.18,52.45 336.44,828.2 61.78,395.24 28.5,159.58 510.22,159.58 -2.88,-129.51 -46,-311.16 -65.23,-428.66 -25.5,-155.79 -75.88,-275.6 -75.88,-418 0,-147.64 -8.86,49.63 102.1,-250.69 96.46,-261.11 308.29,-652.12 321.24,-807.65 -117.72,2.63 -156,19.12 -278.86,38.65 -125.65,19.98 -189.38,13.36 -250.86,101.92 -30.41,43.8 -169.48,417.97 -175.84,494.43zm670.28 30268.34c0,37.91 103.18,141.11 176.39,141.11l3951.11 0c235.55,0 216.79,-388.06 0,-388.06l-3951.11 0c-114.05,0 -176.39,128.06 -176.39,246.95zm16404.17 -19967.23l-116.64 -165.6c-3.22,-5.94 -9.75,-18.09 -12.34,-22.94 -2.6,-4.85 -7.17,-15.97 -12.14,-23.12l101.39 -284.82c33.03,-65.6 15.26,-32.76 39.73,-67.96 -5.16,-2.43 -15.08,-8.07 -16.87,-2.82 -19.04,55.61 -243.84,-195.31 -406.47,-208.85 -75.61,283.19 -141.11,15.74 -141.11,670.28 0,201.06 190.41,599.72 635,599.72 198.77,0 432.26,-185.24 479.67,-366.99 33.03,-126.59 10.47,-277.49 11.65,-411.69 1.77,-202.46 12.43,-240.85 178.96,-279.65 73.38,314.98 21.19,168.72 0,423.33 133.45,64.04 256.65,106.86 388.06,176.39 33.83,-126.72 31.2,-44.76 67.76,-179.18 249.48,-917.29 -873.66,-1209.42 -1036.12,-577.51 -83.55,324.97 99.75,547.12 -160.53,721.41zm-3139.73 14887.23c0,284.98 243.33,564.44 529.17,564.44 264.37,0 396.7,-151.89 577.1,-240.49 269.72,-132.46 339.73,205.21 -118.49,205.21 0,214.22 35.28,282.66 35.28,458.61 883.73,0 1002.53,-1199.44 211.67,-1199.44 -324.9,0 -426.57,246.94 -670.28,246.94 -173.32,0 -118.46,-282.22 352.78,-282.22 7.61,-341.86 214.51,-493.89 -141.12,-493.89 -462.36,0 -776.11,454.36 -776.11,740.84zm4480.28 -6279.45c-112.46,0 -166.23,-71.06 -163.31,-163.92 10.53,-335.86 180.64,-202.09 339.7,-188.86 -43.06,89.76 -65.78,352.78 -176.39,352.78zm-1164.17 -635c200.91,16.72 481.67,97.17 670.28,141.11 -297.2,619.41 254.37,1290.13 819.02,854.3 188.7,-145.65 222.97,-493.13 274.52,-713.3 119.73,-511.35 243.29,-381.39 -749.53,-590.84l-908.45 -185.16c-28.91,60.24 -103.73,399.18 -105.84,493.89zm-29986.11 -6773.33c0,191.31 1.04,358.27 153.43,481.57 476.94,385.93 750.53,-61.21 828.96,-126.18 121.51,-100.65 7.58,11.99 85.47,-131.44 179.02,-329.69 411.38,-200.66 240.62,59.03 -73.93,112.43 -135.69,115.07 -250.15,175.63l105.84 423.33c578.03,0 884.84,-910.65 464.22,-1240.33 -5.79,-4.54 -13.75,-11.19 -19.74,-15.54 -189.28,-137.52 -406.98,-143.44 -602.91,-31.53 -120.59,68.89 -312.24,287 -359.47,390.73 -92.42,202.97 -306.5,113.73 -178.58,-75.82 75.98,-112.57 85.66,-44.96 167.31,-156.4 -41.3,-177.28 -130.85,-192.57 -176.39,-388.05 -237.07,55.23 -458.61,340.89 -458.61,635zm27763.61 12241.39c0,323.52 370.78,806 952.84,388.39 245.29,-175.98 208.05,-214.78 387.72,-176.73 -4.5,202.22 -78.63,242.41 -282.22,246.95l35.57 362.88c17.14,70.98 20.96,-37.53 34.98,131.01 206.15,-98.92 670.28,-194.81 670.28,-740.84 0,-322.31 -236.19,-529.16 -529.17,-529.16 -367.14,0 -492.63,352.78 -705.55,352.78 -201.93,0 -98.34,-317.5 317.5,-317.5l0 -493.89c-460.53,0 -881.95,275.89 -881.95,776.11zm-24659.16 -17744.72c146.9,-277.63 222.65,-299.19 388.05,-211.67 0,191.53 -62.25,182.33 -176.39,352.78 -71.27,-47.73 -140.39,-93.39 -211.66,-141.11zm-141.12 -564.45c40.5,-169.17 24.03,-54.83 0,-105.83 -115.67,250.11 152.57,-98.03 -211.65,388.05 -145.81,194.6 -245.97,267.67 -282.23,423.34l519.89 397.33c221.57,152.03 722.13,613.39 926.49,661 211.13,-399 373.21,-299.54 -15.56,-584.16 -105.52,-77.24 -164.51,-127.36 -231.38,-227.23 107.7,-203.54 312.81,-338.96 265.5,-650.74 -60.08,-395.88 -317.85,-478.15 -618.28,-478.15 -166.01,0 -252.75,109.41 -352.78,176.39zm-917.22 2187.22c0,-88.7 89.56,-197.78 154.49,-237.62 142.38,-87.37 170.63,64.17 181.08,41.21 2.84,-6.24 11.3,13.5 17.21,20.02 28.45,73.79 -95.82,231.91 -141.11,317.5 -51.38,-27.18 -211.67,-82.29 -211.67,-141.11zm-635 246.95l755.98 443.46c155.59,94.15 671.36,409.39 796.24,438.48 40.95,-175.75 167.91,-259.45 211.67,-423.33l-564.44 -352.78c104.57,-197.63 384.57,-625.96 82.13,-928.8 -217.36,-217.64 -769.95,-248.29 -883.88,64.72 -13.79,37.86 -72.73,146.64 -97.98,174.63 -105.43,116.85 -17.1,12.82 -174.66,284.85 -77.76,134.24 -116.16,191.82 -125.06,298.77zm13476.11 -7373.06c-170.01,253.89 -367.18,14.29 -493.88,-70.55 -129.78,30.23 -279.08,146.34 -352.78,246.94 112.85,422.66 857.02,510.47 1155.7,238.48 284.74,-259.31 207.41,-745.9 -102.34,-903.79 -286.06,-145.81 -505.97,-86.82 -559.47,-287.19 158.02,-88.78 266.8,-10.64 388.05,70.56 64.76,-43.37 74.01,-53.15 131.98,-114.97 78.08,-83.24 72.5,-103.84 150.24,-131.98 -11.39,-136.98 -52.67,-165.78 -162.74,-225.31 -249.72,-135.07 -661.64,-140.8 -857.25,87.26 -198.85,231.82 -216.6,697.87 207.92,879.57 186.83,79.97 375.41,48.34 494.57,210.98zm-4727.22 35.28c0,266.19 103.8,463.75 311.7,534.97 63.49,21.75 275.63,56.62 361.27,62.06 245.79,15.64 182.73,-38.82 350.09,73.25 -121.47,229.56 -319.66,151.95 -493.89,35.28 -101.77,68.14 -283.01,258.89 -317.5,388.05 127.83,34.13 107.64,78.97 250.42,137.64 555.86,228.41 1019.58,-171.93 1019.58,-455.14 0,-507.72 -198.41,-671.73 -706.93,-668.9 -199.02,1.11 -237.14,21.2 -280.85,-142.49 139.51,-78.38 245.46,-11.86 388.06,0 63.87,-120.72 172.74,-259.59 176.39,-423.33 -248.46,-57.88 -597.93,-163.27 -873.81,78.7 -67.46,59.17 -184.53,275.98 -184.53,379.91zm-10653.89 14463.89c324.38,0 653.43,67.24 988.36,69.97 944.85,7.71 776.8,383.85 847.34,-633.2 7.82,-112.76 94.14,-375.37 -17.87,-442.99 -28.08,-16.95 -183.14,-26.46 -227.57,-28.55 -154.18,-7.23 -179.15,-16.6 -179.15,611.44l-282.22 0c1.93,-86.61 44.21,-474.27 70.56,-529.17 -163.6,-3.65 -125.83,-35.28 -352.78,-35.28 -297.87,0 125.46,529.17 -282.22,529.17 -189.8,0 -70.56,-234.96 -70.56,-670.28l-423.33 0c0,405.64 -70.56,744.83 -70.56,1128.89zm31115 1658.05c324.6,0 274.75,-41.53 232.66,417.89 -26.03,283.97 158.24,64.71 402.35,181.84 48.15,-116.58 3.63,-13.38 15.49,-135l19.78 -394.17 282.23 0c0,185.03 -55.83,458.01 -70.56,635 112.66,46.54 299.27,35.28 423.33,35.28 2.52,-113.15 36.07,-407.12 55.48,-544.25 25.77,-182.05 50.36,-409.25 50.36,-584.64l-1763.89 -176.39c-14.62,62.75 -127.34,1074.74 -120.73,1102.07 24.48,101.21 27.5,51.37 186.63,69.26 130.16,14.64 185.54,61.08 233.95,-22.5 11.86,-20.48 52.92,-524.24 52.92,-584.39zm-23948.23 11777.4c-87.21,-65.27 -177.35,-141.57 -287.6,-171.01 -31.61,118.4 -147.04,221 -211.67,317.5 89.38,133.47 749.18,581.36 917.22,670.28l751.24 -1083.21c350.36,-444.26 279.46,-395.28 25.15,-575.12l-705.83 -458.34c-69.88,132.07 -141.79,220.72 -211.67,352.78 78.83,52.79 159.26,121.26 241.45,181.89 86.99,64.18 167.07,113.72 252.44,170.89 -24.4,91.4 -61.46,127.82 -105.83,211.67 -80.35,-53.8 -154.89,-89.93 -237.01,-151.05 -89.79,-66.81 -121.13,-119.88 -256.88,-131.18 -47.75,178.83 -170.96,144.58 -176.39,388.06l388.06 246.94c-24.41,91.4 -61.47,127.82 -105.84,211.67 -118.92,-62.92 -170.88,-102.45 -276.84,-181.77zm21866.85 -6097.67c0,128.93 251.8,188.14 352.77,211.66l282.23 -529.16c109.48,25.5 102.18,45.04 211.66,70.55 -12.08,145.15 -174.57,354.95 -211.66,493.89 110.15,73.77 318.55,152.08 388.05,246.95 127.99,-91.43 -63.44,34.22 80.63,-234.29 52.16,-97.22 85.25,-133.33 95.76,-259.6 185.28,4.12 134.71,36.19 282.22,70.55 -58.93,111.37 -274.41,505.87 -282.22,599.72 106.29,56.25 265.32,147.8 388.06,176.39 54.69,-234.75 443.13,-832.98 493.88,-1023.05l-1198.03 -601.13c-148.45,-80.84 -252.17,-160.62 -424.74,-174.98 -46.34,173.52 -458.61,843.25 -458.61,952.5zm-9913.06 -21025.56c13.93,-167.4 70.55,-266.46 70.55,-458.61 -168.99,-3.76 -447.62,-70.4 -599.72,-105.83l0 -211.67c226.64,0 336.68,58.24 471.83,64.1 172.63,7.48 92.96,8.54 108.97,-75.87l18.92 -376.29c-143.7,0 -372.19,-42.2 -493.88,-70.55 2.39,-107.48 15.92,-128.61 35.27,-211.67 248.36,0 386.64,70.56 635,70.56 3.59,-161.16 58.03,-272.77 70.56,-423.34l-991.75 -181.29c-112.29,-22.48 -103.97,-50.74 -135.83,74l-218.07 1266.37c-56.64,342.91 -128.09,397.54 10.93,455.44 38.84,16.17 432.29,71.87 514.24,87.91 106.75,20.89 415.93,54.97 502.98,96.74zm-17286.11 18838.33c217.86,18.13 382.34,212.95 380.11,428.08l-2.87 45.66c-0.62,6.36 -1.67,16.67 -2.58,23.12 -81.83,576.83 -1210.7,455.6 -762.72,-391.02 -84.11,-125.6 -230.76,-304.41 -388.06,-317.5 -53.8,201.49 -16.41,-75.32 -106.73,208 -132.98,417.1 -192.28,756.54 217.08,1128.04 535.33,485.83 1512.43,146.08 1512.43,-665.76 0,-361.54 -99.58,-564.78 -354.42,-774.47 -52.39,-43.11 -313.72,-185.77 -383.57,-168.23 -125.13,31.43 -108.67,325.56 -108.67,484.08zm22119.17 -17744.72c31.82,-119.19 247.5,-260.52 352.41,-353.14l35.64 -34.91c-32.09,137.75 -102.64,385.77 -105.83,529.16 -100.72,-53.29 -157.44,-112.04 -282.22,-141.11zm-987.78 105.84c16.06,192.99 153.53,195.73 388.05,352.77 53.71,-35.96 211.87,-163.79 246.95,-211.66 100.45,67.26 388.95,257.77 493.89,282.22 0,117.75 -5.41,101.98 -24.05,192.74 -26.43,128.73 -42.3,134.21 69.55,220.36 4.5,3.46 90.62,55.27 109.13,67.26 91.61,59.33 120.88,93.14 233.42,119.36 3.1,-139.02 52.98,-333.14 85.45,-479 37.78,-169.75 62.26,-291.8 99.56,-464.88 54.62,-253.41 167.77,-718.79 167.77,-961.12 -410.02,-109.48 -187.32,-406.25 -735.98,4.85 -95.24,71.36 -137.16,112.69 -237.89,185.45 -36.98,26.7 -65.21,47.13 -99.05,77.33l-328.01 271.72c-83.12,61.99 -148.26,108.5 -222.43,165.63 -99.44,76.6 -125.47,144.68 -246.36,176.97zm-22048.62 16051.38c63.49,-86.64 345.46,-216.73 458.61,-246.94 0,177.25 3.94,182.98 35.28,317.5 -56.26,-26.99 -406.42,-68.61 -493.89,-70.56zm-635 -141.11c0,212.59 70.56,316.58 70.56,529.17 172.54,0 336.99,35.47 467.61,61.55 154.46,30.85 328.6,44.47 459.29,69.88l942.82 150.79c0,-200.41 -66.39,-342.14 -70.55,-529.16 -97.48,0 -170.19,-6.99 -224.77,-22.18 -133.81,-37.26 -89.89,11.48 -127.26,-119.68 -17.73,-62.22 -69.82,-391.18 -71.31,-457.87 43.21,-22.86 108.5,-46.93 143.67,-67.99 160.81,-96.28 106.83,-125.98 106.84,-125.72l-11.11 -182.73c-10.9,-65.63 -32.68,-195.36 -63.01,-258.56 -186.58,43.47 -620.6,335.37 -822.25,447.75 -104.85,58.42 -800.53,449.1 -800.53,504.75zm5721.2 8578.7c37.47,-79.23 61.55,-145.89 99.64,-217.86 115.4,77.27 109.84,139.78 246.94,176.39 -52.65,71.86 -111.83,102.17 -199.98,152.79l-258.63 94.15 112.03 -205.47zm-676.47 452.41c0,163.82 -7.9,54.7 185.58,237.76 82.15,77.72 111.45,124.63 202.47,185.58 276.04,-146.06 533.94,-303.52 823.08,-446.92 150.93,-74.85 278.11,-131.04 422.94,-212.06 113.15,-63.29 299.26,-192.85 412.04,-222.97 -48.86,-182.96 -234.54,-211.47 -352.78,-388.05 -115.72,61.23 -200.16,137.71 -352.78,141.11 -35.31,-97.56 -166.59,-189.89 -261.92,-267.25 -67.93,-55.13 -46.17,-43.22 -126.13,-85.53 24.33,-45.98 52.27,-90.67 75.96,-135.71 28.31,-53.83 40.79,-95.75 65.15,-146.51 -70.27,-104.94 -269.02,-320.99 -388.06,-352.78l-705.55 1693.33zm22119.17 -22295.55c193.66,-16.12 272.31,-132.99 458.61,-176.39 -47.61,89.98 -64.4,133.51 -126.7,226.08 -58.94,87.56 -74.26,110.35 -120.25,197.25 -91.28,-61.12 -179.21,-125.38 -211.66,-246.94zm-1023.06 -105.83c15.61,187.63 67.54,102.73 282.22,423.33 172.02,-14.32 211.12,-72.83 352.78,-105.83 27.71,41.37 41.01,62.05 73.28,103.1l279.5 320.23c-63.9,120.77 -137.02,168.99 -141.11,352.78 200.4,53.51 113.79,218.41 352.77,282.22 131.61,-124.54 -25.23,-89.5 151.27,-252.2 62.23,-57.36 8.22,40.77 39.61,-49.01 137.9,-394.34 631.35,-1100.5 691.07,-1356.85 -82.41,-123.06 -230.35,-257.9 -317.5,-388.05l-1763.89 670.28zm-25082.5 3986.38c500.94,335.45 1435.37,416.72 1137.06,852.95 -160.87,235.27 -424.53,99.51 -784.35,-76.77 -183.81,-90.05 -384.11,-151.62 -564.38,-247.01 -77.59,146.64 -176.39,277.45 -176.39,493.89 661.78,154.18 1294.19,857.21 1805.88,218.38 167.56,-209.21 204.96,-414.45 204.96,-712.27 0,-479.94 -493.5,-575.04 -1008.41,-790.76 -157.84,-66.13 -248.58,-145.98 -437.98,-161.74 -65.2,135.87 -105.67,289.67 -176.39,423.33zm29986.11 5468.06c517.69,0 784.65,-157.08 769.79,106.55 -10.55,187.03 -208.11,422.62 -487.57,422.62 -350.21,0 -458.61,-243.7 -458.61,-529.17l176.39 0zm282.22 1023.06c482.6,0 881.95,-366.2 881.95,-846.67 0,-611.25 65.93,-725.59 -118.26,-734.24 -19.98,-0.94 -113.34,21.57 -198.61,26.76 -180.55,10.98 -383.36,0.46 -566.28,0.71 -224.72,0.32 -292.92,40.2 -527.44,37.02 -548.26,-7.45 -364.48,1.32 -352.3,421.71 7.13,246.3 -34.77,421.36 145.27,701.49 136.95,213.09 392.07,393.22 735.67,393.22zm-31150.28 811.38c108.19,-75.18 137.38,-167.3 261.93,-50.26 82.66,77.68 90.85,186.19 90.85,332.49l-352.78 0 0 -282.23zm635 -282.22c-260.64,-492.58 -1058.33,-340.81 -1058.33,282.22 0,320.82 35.28,496.54 35.28,811.39 423.84,0 742.23,-21.52 1165.32,-34.12 25.12,-0.75 553.84,-41.93 558.54,-43.6 178.9,-63.95 -41.98,-242.28 75.3,-486.72l-670.27 0c92.64,-138.36 437.21,-349.79 599.72,-458.61l0 -564.45c-103.27,27.58 -532.44,377.97 -705.56,493.89zm5679.73 -13264.44c167.05,-44.61 197.13,-141.11 246.94,-141.11 246.22,0 230.63,333.49 -105.83,423.33 -43.4,-82.02 -118.22,-196.48 -141.11,-282.22zm-635 -35.28c35.02,150.34 367.41,573.45 478.74,720.7 100.02,132.31 152.46,215.88 247.32,352.4 108.02,155.45 168.2,196.57 261.71,373.29 198.42,-46.23 232.5,-170.13 388.06,-211.67 -6.21,-278.84 -255.12,-366.11 -317.5,-599.72 230.28,19.16 556.31,246.94 776.11,246.94 4.42,0 354.12,-223.74 388.06,-317.5l-776.12 -282.22c28.71,-123.2 70.56,-118.79 70.56,-246.94 0,-393.48 -337.56,-683.14 -703.63,-600.33 -129.58,29.32 -322.87,175.05 -425.13,247.67 -74.69,53.03 -119.79,90.69 -205.28,147.51 -88.83,59.03 -126.82,86.11 -182.9,169.87zm24765 17885.83c17.83,-76.52 73.93,-215.73 105.83,-282.22 135.96,31.68 197.82,77.95 317.5,105.83 -151.7,286.71 -158.37,481.23 -423.33,176.39zm-846.67 -670.27c0,123.01 450.66,126.92 564.45,282.22 -175.04,83.99 -445.39,90.53 -650.99,160.4 -155.91,52.99 -122.14,62.86 -170.19,217.87 -33.52,108.17 -84.01,182.63 -96.05,327.28 277.68,-23.1 501.55,-176.39 811.39,-176.39 37.63,161.51 55.46,222.11 164.8,329.1 281.37,275.35 782.46,211.58 934.59,-217.49 286.76,-808.78 327.59,-760.98 82.36,-834.75 -344.34,-103.59 -1304.81,-495.4 -1499.25,-511.58 -42.52,80.37 -141.11,308.49 -141.11,423.34zm-28469.17 2434.16c3.28,147.12 113.28,362.37 176.39,493.89 91.35,-24.39 522.73,-258.09 635,-317.5l259.37 523.02c-105.41,30.98 -468.76,231.16 -576.87,288.37 18.95,227.74 110.19,174.47 176.39,458.61l1410.37 -706.3c76.08,-40.84 200.41,-85.64 177.57,-170.38 -8.88,-32.99 -7.69,-30.19 -19.14,-54.47 -64.01,-135.66 -105.99,-150.03 -146.97,-322.11 -5.4,-22.68 -0.36,-30.02 -10.72,-52.02l-305.6 188.29c-120.83,59.7 -220.52,106.88 -329.4,164.49 -42.2,-181.13 -196.62,-313.17 -246.94,-529.17l284.05 -139.28c91.16,-53.4 187.63,-93.85 280.39,-142.94l-176.39 -458.61c-178.81,41.66 -592.65,292.65 -775.88,388.28 -165.59,86.42 -650.63,350.33 -811.62,387.83zm7725.84 7831.67c100.21,8.34 345.08,143.65 423.33,211.67 10.36,-21.98 5.32,-29.36 10.72,-52.02 58.23,-244.38 714.25,-1351.25 765.39,-1570.76 -74.94,-102.28 -278.34,-213.17 -423.33,-246.95 -37.04,158.99 -115.65,243.84 -185.75,382.85 -133.09,263.9 -163.49,-70.77 -96.48,216.88l-529.16 -246.95c43.35,-186.07 156,-313.78 231.37,-474.19 60.25,-128.24 35.66,21.68 50.85,-160.81 -64.26,-43.03 -345.72,-193.58 -423.33,-211.67l-411.05 823.67c-110.06,216.84 -347.51,572.36 -400.34,799.11 126.3,66.83 286.75,162.09 458.61,176.39 26.28,-54.77 31.64,-91.32 60.82,-150.84 41.14,-83.93 42.32,-66.22 78.1,-133.57 33.95,-63.93 90.39,-204.33 108.02,-280.03 178.4,14.84 385.37,205.22 564.45,246.94 -74.01,139.86 -175.56,393.24 -274.7,509.34l-42.8 55.11c35.03,53.23 35.28,-80.68 35.28,105.83zm-4303.89 -25717.5c0,-468.45 870.87,-555.77 906.8,3.56 6.33,98.61 -49.78,229.16 -107.54,301.79 -140.55,176.72 -254.21,153.26 -446.49,153.26 -72.53,0 -352.77,-138.89 -352.77,-458.61zm-458.61 -35.28c0,1094.35 1142.84,1210.87 1593.42,711.48 470.53,-521.5 246.97,-1558.15 -711.48,-1558.15 -520.58,0 -881.94,462.59 -881.94,846.67zm20637.5 23177.5c0,-83.43 77.35,-239.2 130.53,-292.8 159.22,-160.49 497.57,-214.24 683.43,43.29 303.86,421.03 -192.43,672.84 -249.52,672.84l-211.66 0c-128.51,0 -352.78,-233.72 -352.78,-423.33zm-458.61 0c0,195.22 57.88,385.75 162.65,542.9 320.73,481.14 1137.27,512.18 1480.41,41.83 34.85,-47.78 14,-15.83 41.59,-64.24 70.85,-124.31 149.79,-302.15 149.79,-449.93 0,-1361.71 -1834.44,-1255.03 -1834.44,-70.56zm388.05 -24059.44c0,249.77 103.48,483.53 220.53,626.14 387.81,472.53 1312.67,335.36 1437.53,-132.25 -75.42,-112.63 -581.85,-534.27 -705.56,-599.73 -62.88,93.91 -148.78,188.31 -211.66,282.23l218.8 240.02c-205.33,6.92 -250.72,0.33 -353.72,-105.11 -417.11,-426.99 161.15,-987.61 616.53,-616.53 288.17,234.83 -12.35,375.96 240.58,462.17 98.93,33.72 221.08,54.72 336.14,54.72 141.74,-592.05 -222.51,-1128.89 -952.5,-1128.89 -468.21,0 -846.67,440.62 -846.67,917.23zm-1905 26599.44c144.99,-33.78 348.4,-144.67 423.34,-246.94l-423.34 -846.67c146.44,34.12 601.07,279.52 796.72,367.45 635.96,285.8 276.66,61.61 755.5,-49.95 -42.26,-181.4 -298.47,-615.31 -402.94,-831.78l-408.44 -791c-171.57,39.97 -251.77,136.42 -423.34,176.39 25.71,200.45 119.08,308.37 200.26,470.03 63.45,126.35 197.96,339.37 223.08,447.19l-799.55 -364.62c-108.21,-54.22 -263.9,-175.11 -376.16,-140.46 -80.31,24.79 -171.88,139.91 -376.52,187.58 9.11,109.42 498.42,1000.89 611.87,1222.59 55.19,107.85 175.3,309.5 199.52,400.19zm6561.67 -21801.67l10.53 10.52c-0.7,-0.68 -14.04,-7.01 -10.53,-10.52zm-176.39 -740.83l10.53 10.52c-0.7,-0.69 -14.04,-7.01 -10.53,-10.52zm-1058.33 -35.28c4.34,195.14 129.13,370.64 211.66,493.89 197.31,-104.4 633.37,-373.64 846.67,-423.33 -21.49,258.2 -265.37,511.49 -300.1,636.05 -52.61,188.6 -193.79,369.53 -193.79,457.56 0,79.69 177.58,277.04 211.67,423.33 156.78,-13.04 300.33,-112.42 416.52,-183.2 185.8,-113.19 1072.98,-529.7 1170.98,-663.46l-211.67 -423.34 -881.94 458.61 416.83 -878.14c2.33,-3.97 7.56,-12.73 9.66,-16.64l29.29 -70.86c112.5,-346.94 -62.53,-261.44 -138.28,-586.58 -287.02,23.89 -1337.33,755.3 -1587.5,776.11zm-8890 -6279.44c76.4,40.42 139.18,73.12 219.26,98.23 107.83,33.81 149.54,35.07 239.35,78.16 80.29,-167.33 174.08,-706.32 317.5,-811.39 0,349.55 70.55,577.94 70.55,917.22 98.09,51.9 159.1,77.15 282.22,105.83l277.94 -321.78c104.2,-113.08 195.96,-228.96 321.79,-313.22 -23.22,279.04 -204.94,474.03 -211.67,776.12 117.65,27.41 324.9,93.87 423.33,141.11 150.09,-312.8 443.25,-1459.66 599.73,-1693.34 -145.58,-77.03 -324.44,-159.35 -529.17,-176.39l-407.43 439.24c-0.01,0.02 -31.8,38.73 -31.81,38.75l-372.15 368.68c0,-180.4 -50.04,-417 -70.57,-599.71 -20.49,-182.43 -55.99,-424.93 -70.54,-599.73 -207.65,-17.28 -314.58,-126.19 -493.89,-141.11 -19.42,83.36 -43.07,150.61 -62.59,221.49 -19.41,70.46 -4.84,42.36 -31.78,110.23l-76.19 234.59c-22.72,89.31 -56.46,151.62 -86.12,235.33 -108.2,305.4 -169.13,629.69 -307.76,891.69z"/>
   <g>
    <path class="fil1" d="M24059.45 14111.12c0,-81.29 24.55,-105.84 105.83,-105.84 783.6,0 1326.65,276.68 1453.63,1089.18 106.23,679.68 -415.97,1380.27 -1100.85,1380.27l-458.61 0 0 -2363.61zm-952.5 3139.72c0,81.28 24.55,105.83 105.83,105.83 949.38,0 1816.48,108.59 2530.14,-436.08 50.37,-38.43 32.35,-33.07 78.84,-58.5l508.05 -621.72c417.9,-820.1 276.85,-1838.33 -373.18,-2474.21 -790.49,-773.31 -1800,-607.54 -2849.68,-607.54l0 4092.22z"/>
    <path class="fil2" d="M6738.06 17356.67l917.22 0 0 -1693.33 1658.06 0 35.27 1305.28c0,243.82 -55.64,149.21 0,388.05 164.61,0 329.44,-0.84 494.02,0.13 172.9,1.01 423.21,54.84 423.21,-105.96l0 -4092.22 -952.5 0 37.31 846.28c1.12,204.62 -30.92,263.36 -38.46,424.99 -10.56,226.52 41.86,212.02 1.15,386.78l-1658.06 0 0 -1658.05 -917.22 0 0 4198.05z"/>
    <path class="fil3" d="M19931.95 15769.17c4.73,-212.35 363.44,-1143.71 458.61,-1552.22l91.83 190.39c88.95,304.18 398.27,1191.6 402.06,1361.83 -278.21,-23.15 -251.47,3.6 -530.64,1 -219.66,-2.04 -314.63,-45.3 -421.86,-1zm-1516.95 1587.5l987.78 0c66.84,-286.89 159.36,-579.19 282.22,-811.39 273.12,153.44 1364.92,-94.97 1498.82,86.19 82.92,112.19 158.28,725.2 335.63,725.2l881.94 0c0,-168.16 -167.61,-588.03 -239.05,-803.28l-471.96 -1272.65c-126.15,-340.34 -732.26,-1982.25 -735.38,-2122.12 -1289.37,0 -1005.33,-137.53 -1229.39,463.94 -70.7,189.8 -120.58,348.74 -196.67,544.16 -42.87,110.08 -57.62,148.87 -91.13,261.64 -31.6,106.34 -67.9,187.1 -101.2,286.86 -72.27,216.47 -322.64,936.99 -420.79,1097.95l-133.02 429.63c-78.63,204.53 -363.84,936.15 -367.8,1113.87z"/>
    <path class="fil4" d="M11359.45 14287.5c0,1222.3 1077.84,1149.86 1706.32,1539.24 389.91,241.56 209.6,769.88 -472.5,650.54 -183.05,-32.03 -291.49,-91.72 -402.46,-198.92 -5.21,-5.04 -12.4,-12.62 -17.45,-17.82l-214.19 -279.7c-171.54,39.96 -606.47,345.01 -776.11,458.61 102.85,441.49 852.36,952.5 1481.67,952.5 592.06,0 1143.09,-139.73 1435.63,-716.31 283.19,-558.11 110.98,-1281.08 -596.48,-1675.07 -321.07,-178.8 -902.57,-280.76 -1104.97,-517.8 -112.95,-132.28 -124.61,-279.47 -19.31,-409.87 158.52,-196.31 508.98,-114.89 686.53,-10.41l304.15 225.01c118.63,-79.43 196.21,-189.65 317.5,-282.22 117.04,-89.32 234.97,-194.26 317.5,-317.5 -174.48,-116.83 -531.49,-599.72 -1270,-599.72 -349.87,0 -773.64,142.44 -961.94,308.05 -217.36,191.17 -413.89,499.17 -413.89,891.39z"/>
    <path class="fil3" d="M17003.89 16086.67c0,635.53 -1132.7,448.22 -1270,-141.11l-600.47 352.24c-276.75,178.54 -233.32,200.1 -128.33,306.66 242.35,245.98 84.38,219.58 628.88,569.91 563.13,362.31 1780.07,323.05 2170.61,-463.4 358.67,-722.26 74.89,-1360.39 -554.71,-1716.95 -191.67,-108.54 -466.47,-194.71 -683.23,-269.27 -811.07,-279 -502.21,-754.75 -127.19,-754.75 353.58,0 471,219.34 670.28,352.78 119.29,-79.88 202.73,-184.7 308.65,-291.07 271.35,-272.5 435.37,-283.81 100.5,-541.41 -675.04,-519.3 -1704.94,-532.92 -2209.76,160.77 -209.33,287.64 -254.52,814.94 -95.42,1191.91 242.26,573.98 877.15,665.56 1377.21,880.57 129.45,55.65 412.98,180.15 412.98,363.12z"/>
    <path class="fil5" d="M15592.78 8113.89c0,-95.28 16.85,-97.27 35.28,-176.39l769.27 0.8 42.12 422.54 388.05 0c0,214.6 35.28,257.33 35.28,458.61 0,149.44 -35.28,165.63 -35.28,352.78 -622.79,0 -309.88,-63.66 -423.33,423.33 -287.48,0 -759.55,56.41 -804.9,-77.05 -58.61,-172.49 97.21,-306.81 -113.07,-345.54 -140.66,-25.9 -316.75,63.05 -316.75,-106.58 0,-829 -103.35,-705.55 423.33,-705.55l0 -246.95zm-1199.44 564.45c0,250.25 87.9,619.41 176.9,775.6l435.81 551.96c190.03,173.7 895.3,965.49 1010.06,965.49 92.05,0 106.68,-57.24 181.1,-136.4l188.39 -199.67c57.24,-62.06 67.29,-57.47 132.44,-114.5 94.44,-82.65 159.29,-163.45 242.96,-250.93l53.33 -52.5c46.83,-47.35 23.75,-23.32 68.15,-72.97l285.17 -279.27c1466.29,-1707.95 -822.28,-3790.74 -2307.5,-2307.5 -249.74,249.4 -466.81,636.9 -466.81,1120.69z"/>
    <path class="fil6" d="M15592.78 8113.89l0 246.95c-526.68,0 -423.33,-123.45 -423.33,705.55 0,169.63 176.09,80.68 316.75,106.58 210.28,38.73 54.46,173.05 113.07,345.54 45.35,133.46 517.42,77.05 804.9,77.05 113.45,-486.99 -199.46,-423.33 423.33,-423.33 0,-187.15 35.28,-203.34 35.28,-352.78 0,-201.28 -35.28,-244.01 -35.28,-458.61l-388.05 0 -42.12 -422.54 -769.27 -0.8c-18.43,79.12 -35.28,81.11 -35.28,176.39z"/>
    <g>
     <path class="fil7" d="M15839.73 19508.62c1270.14,0 1645.53,241.44 2595.97,967.07 797.89,1042.58 1329.21,1922.15 928.41,3333.42 -82.98,292.18 -228.97,646.93 -400.54,904.74 -582.09,770.25 -1013.89,1283.26 -2064.65,1533.68 -576.71,137.45 -1175.72,154.74 -1753.12,-12.49 -829.5,-240.25 -1445.36,-685.82 -1931.07,-1385.04 -593.65,-854.59 -778.46,-1981.38 -435.66,-2969.26 690.5,-1224.68 1407.18,-2372.12 3060.66,-2372.12zm211.66 7408.33c573.95,0 1132.67,-152.77 1547.73,-321.99l1022.02 -636.05c172.92,-149.51 378.24,-341.08 570.69,-593.47 429.58,-563.37 517.57,-955.57 740.71,-1622.89 211.76,-1114.77 18.26,-1936.58 -511.02,-2912.12 -236.65,-436.2 -774.49,-944.95 -1182.77,-1216.12 -1348.08,-895.36 -3166.96,-885 -4445.8,34.76 -610.73,439.25 -1058,962.47 -1382.38,1651.51 -57.03,121.15 -73.2,237.28 -123.24,370.86 -144.53,385.87 -200.28,823.61 -221.63,1226.85l101.05 883.02 238.22 749.56c245.11,514.24 296.37,546.55 562.76,918.91 164.33,229.71 444.56,461.13 665.19,640.08 382.24,310.04 1044.96,619.72 1503.14,719.37 238.23,51.81 639.43,107.72 915.33,107.72z"/>
     <path class="fil7" d="M14040.56 25082.5c124.38,0 150.07,-126.5 195.29,-228.04 123.41,-277.13 261.33,-543.89 482.64,-752.08 554.94,-522.05 1524.06,-666.99 2177.64,-323.23 1054.03,554.39 859.5,1303.35 1166.1,1303.35 519.41,0 58.09,-708.31 -34.69,-882.53 -160.94,-302.23 -650.2,-712.99 -982.67,-851.78 -127.4,-53.18 -166.2,-79.04 -337,-121.61 -361.64,-90.13 -786.99,-144.19 -1147.09,-45.8 -233.26,63.73 -256.41,44 -532.51,173.04 -87.52,40.9 -199.05,112.48 -289.47,169.15 -106.47,66.72 -162.11,117.55 -259.17,199.44 -346.78,292.55 -1069.06,1360.09 -439.07,1360.09z"/>
     <path class="fil7" d="M16721.67 21625.28c0,609.26 846.67,577.74 846.67,35.28 0,-609.26 -846.67,-577.74 -846.67,-35.28z"/>
     <path class="fil7" d="M14463.89 21590c0,504.03 450.51,610.23 717.12,364.35 166.77,-153.81 160.48,-457.29 18.34,-605.91 -286.8,-299.87 -735.46,-61.16 -735.46,241.56z"/>
    </g>
    <path class="fil5" d="M15513.17 8311.37c75.75,-143.16 -44.32,-415.82 99.62,-421.47l112.05 -1.87c129.53,-0.03 343.39,15.85 474.31,7.99l126.82 0.48c16.62,31.41 33.47,42.81 34.4,92.6 2.3,122.42 -19.09,243.98 33.33,322.27 76.2,0 152.42,0.17 228.61,-0.01 37.46,-0.09 87.6,-3.26 111.9,6.64 17.02,6.93 48.96,42.35 48.96,61.1l0 626.54c0,124.18 -50.02,127.31 -169.32,127.01 -48.1,-0.12 -96.18,-0.15 -144.27,-0.33 -75.91,-0.29 -66.4,5.16 -109.74,34.18 0,42.93 8.46,46.13 8.46,93.14l-4.96 92.79c-1.85,113.57 9.44,203.54 -96.64,203.54l-347.13 0 -93.13 0c-185.56,0 -282.5,34.33 -288.32,-92.68 -2.08,-45.18 0.44,-98.26 0.45,-144.39 0.06,-216.82 -26.83,-186.26 -152.4,-186.26 -98.25,0 -246.48,22.52 -261.74,-51.53 -17.12,-83.14 -4.45,-112.78 -5.07,-132.4l-4.12 -552.67c0,-37.3 27.15,-64.31 51.57,-75.43 36.55,-16.65 294.81,-9.24 346.36,-9.24zm431.8 -1303.87c-501.36,0 -1110.38,330.06 -1363.85,769.75 -395.4,681.5 -311.68,1357.81 156.26,1961.84 18.89,19.79 27.92,23.88 43.77,40.9 60.49,64.98 108.9,136.1 192.49,196.98l288.97 295.23c1.23,1.23 2.97,3.04 4.17,4.29 43.26,45.27 123.59,113.55 155.82,157.45 30.91,42.12 130.89,137.28 174.22,172.91 43.02,35.38 81.63,97.95 125.84,136.63 20.39,17.83 27.8,17.14 46.73,37.94l134.75 128.3c88.86,50 171.59,-70.12 224.33,-128.85l20.45 -21.88c19.97,-17.57 28.08,-15.74 47.52,-37.15l46.82 -46.31c16.92,-14.74 26.89,-27.4 41.46,-43.21l59.2 -67.8c6.85,-6.88 5.53,-6 12.53,-12.87l98.63 -87.64c20.83,-19.08 20.23,-26.09 38.17,-46.49 96.25,-97.18 199.19,-211.46 299.72,-301.42 600.36,-540.32 1131.6,-1530.13 567.22,-2271.69 -25.85,-33.99 -17.77,-18.02 -39.41,-62.18 -378.02,-460.66 -719.08,-774.73 -1375.81,-774.73z"/>
   </g>
  </g>
 </g>
</svg>
