<svg height="512pt" viewBox="0 0 512 512" width="512pt" xmlns="http://www.w3.org/2000/svg"><path d="m256 0c-33.597656 0-66.515625 6.640625-97.84375 19.742188-24.792969 10.371093-47.5625 24.335937-67.894531 41.605468l-18.261719-24.347656c-2.832031-3.777344-7.277344-6-12-6s-9.167969 2.222656-12 6l-36.023438 48.023438c-7.835937 10.449218-11.976562 22.890624-11.976562 35.976562 0 16.453125 6.660156 31.375 17.421875 42.226562-11.554687 29.519532-17.421875 60.671876-17.421875 92.773438 0 140.96875 115.050781 256 256 256 140.96875 0 256-115.050781 256-256 0-140.96875-115.050781-256-256-256zm-220.023438 103.023438 24.023438-32.027344 24.023438 32.027344c14.75 19.671874.65625 47.976562-24.023438 47.976562-24.6875 0-38.769531-28.3125-24.023438-47.976562zm220.023438 378.976562c-124.617188 0-226-101.382812-226-226 0-26.683594 4.59375-52.613281 13.636719-77.285156 5.203125 1.476562 10.6875 2.285156 16.363281 2.285156 33.085938 0 60-26.914062 60-60 0-12.925781-4.046875-25.214844-11.695312-35.585938 41.085937-35.347656 94.191406-55.414062 147.695312-55.414062 124.617188 0 226 101.382812 226 226s-101.382812 226-226 226zm0 0"/><path d="m256 301c-52.636719 0-101.171875 25.050781-131.992188 66.089844-4.976562 6.625-3.640624 16.027344 2.984376 21.003906 6.621093 4.972656 16.027343 3.636719 21-2.988281 25.828124-34.382813 65.195312-54.105469 108.007812-54.105469s82.179688 19.722656 108.007812 54.105469c4.972657 6.625 14.375 7.960937 21 2.988281 6.625-4.976562 7.960938-14.378906 2.984376-21.003906-30.8125-41.027344-79.339844-66.089844-131.992188-66.089844zm0 0"/><path d="m136 241c41.355469 0 75-33.644531 75-75 0-8.285156-6.714844-15-15-15s-15 6.714844-15 15c0 24.8125-20.1875 45-45 45-8.285156 0-15 6.714844-15 15s6.714844 15 15 15zm0 0"/><path d="m376 211c-24.8125 0-45-20.1875-45-45 0-8.285156-6.714844-15-15-15s-15 6.714844-15 15c0 41.355469 33.644531 75 75 75 8.285156 0 15-6.714844 15-15s-6.714844-15-15-15zm0 0"/></svg>